/* XPM */
static char *result[] = {
/* columns rows colors chars-per-pixel */
"64 64 3 1 ",
"  c chocolate",
". c #14FF00",
"X c white",
/* pixels */
"XXXXXXXXXXXXXXXXXXXXXXXXXXXXXXXXXXXXXXXXXXXXXXXXXXXXXXXXXXXXXXXX",
"XXXXXXXXXXXXXXXXXXXXXXXXXXXXXXXXXXXXXXXXXXXXXXXXXXXXXXXXXXXXXXXX",
"XXXXX    XXXXXXXXXXXXXXXXXXXXXXXXXXXXXXXXXXXXXXXXXXXXXXXXXXXXXXX",
"   X        XXXXXXXXXXXXXXXXXXXXX   XXXXXXXXXXXXXXXXXXXXXXXXXXXX",
"               XXXXXXXXXXXXXX       XXXXXXXX    XXXXXXXXXXXXXXXX",
"                  XXXXXXXXXXX       XXXXXXXX        XXXXXXXXXXXX",
"X                    XXXXXXXX      XXXXXXXXX                XXXX",
"XXX                     XXXXXXXXXXXXXXXXXXXXXX              XXXX",
"XXXXXX                    XXXXXXXXXXXXXXXXXXXXXXXX          XXXX",
"XXXXXXXX                     ...........XXXXXXXXXXXXXXXXX   XXXX",
"XXXXXX            XXXX    ................    XXXX   XXXXXXXXXXX",
"XXXXXX        XXXXXXXX   ..................   XXXX   XXXXXXXXXXX",
"XXXXXX     XXXXXXXXX   ........       ......  XXXX   XXXX   XXXX",
"XXXXX        XXXXXXX  ......X           ....XXXXXX   XXXX    XXX",
"XXXXX   XX   XXXXXXX ......XXXX          ....XXXXX   XXXX    XXX",
"XXXX    XX    XXXXX.......      X   X    ....XXXXX   XXXXX   XXX",
"XXXX    XX    X   X.......        XXXXX   ....XXXXXXXXXXXX   XXX",
"XXXX    XX    X   X.......          XXX   ....XXXXXXXXXXXX   XXX",
"XXXX   XXX   XX   XX.....  XXX       XX    ...XXXXXXXXXXXXXXXXXX",
"XXXXXXXXXX   XXXXXX.....  XXXXX            ...XXXXXXXXXXXXXXXXXX",
"XXXXXXXXXXXXXXXXXXX....   X......          ...XXXXXXXXXXXXXXXXXX",
"XXXXXXXXXX   XXXXX....  X  .......         ...XXXXXXXXXXXXXXXXXX",
"XXXXXXXXXX   XXXXX....     .......     X   ... XXXXXXXXXXXXXXXXX",
"XXXXXXXXXX   XXXX.... X    ... ...     XXX....  XXXXXXXXXXXXXXXX",
"XXXXXXXXXXXXXXX  .... X    ... ...X     XX....  XX     XXXX   XX",
"XXXXXXXXXXXXXX  ....  XXXX .......XX     X...   X      XXXX   XX",
"XXXXX   XXXXX   ....     XX.......XXX     ...   X      XXXX   XX",
"XXXX    XXXXX   ...      XXXXX...XXXXX   ....XXXX      XXXX   XX",
"XXXX    XXXXX   ...XX       XXX   XXXXX  ....XXX       XXXX   XX",
"XXXX    X   XXX....XX             XXXXXX....  XX       XXXX   XX",
"XXXX        XXX.... XX            XXXXXX....  XX   X   XXX    XX",
"XXXX        XXX...  XXXX     ....   XXX....   XX   X   XXX    XX",
"XXXX       XXXX...  XXXX     ....     .....XXXXX   X   XXX   XXX",
"XXXX      XXXXX...XXXX       ....    .....XX       X   XXXXXXXXX",
"XXXX     XXXXXX...XX                 ....XXX       X   XXXXXXXXX",
"XXXX   XXXXXX  ...        XX        .....XXX           XXXXXXXXX",
"XXXX   XX   X  ...      XXX        .....  X            X   XXXXX",
"XXXX   XX   X  ...     XX         .....   X         XXX     XXXX",
"XXXX   XX    XX...              ......X   X        XXXX     XXXX",
"XXXX   XX    X ...           X.......XX   X     XXXXXXX     XXXX",
"XXXXXXXXXX   X ....        XX.......XXX   XXXXXXXXXXXX      XXXX",
"XXXXXXXXX      ....      XX.......XXXXX   XXXXXXXXXXXX       XXX",
"XXXXXXXXX       .....  XX.......           XXXXXXXXXX         XX",
"XXXXXXXXX       ...............            XXXXXXXXXX    X    XX",
"XXXXXXXXXXXX     ............XX        X   XXXXXXXXXX   XXX    X",
"XXXXXXX    X   XXX......... XXX     XXXXXXXXXXXXXXXXX   XXX     ",
"XXXXXXX    XXXXXXX  ...     XXXX     XXXXXXX   XXXXXX   XXXX    ",
"XXXXXXX    XXXXXXX     X    XXXXX    XXXXXXX   XXXXXXXXXXXXXX   ",
"XXXXXXXXXXXXXXXXXXXXXXXX    XXXXXX   XXXXXXX   XXXXXXXXXXXXXX   ",
"XXXXXXXXXXXXXXXXXXXXXXXXX    XXXXX   XXXXXXX   XXXXXXXXXXXXXXX  ",
"XXXXXXXXXXXXXXX       XXX     XXXX   XXXXXXX   XXXXXXX   XXXXX  ",
"XXXXXXXXXXX                          XXXXXXXXXXXXXXXXX   XXXXX  ",
"XXXXXXXXX                            XXXXXXXXXXXXXXX       XXXXX",
"XXX   XX       XXXXX                  XXXXX   XXXXXX       XXXXX",
"XXX          XXXXXXXXXXXXXX              XX    XXXXX       XXXXX",
"XXX          XXXXXXXXXXXXXXXXXXX               XXXXXXX    XXXXXX",
"XXX                          XXXXX             XXXXXXXXXXXXXXXXX",
"XXXXXX                       XXXXX             XX              X",
"XXXXXXXXXXX                  XXXXX    XXX                      X",
"XXXXXXXXXXXXXXXXXXXXXXXXXXXXXXXXXXXXXXXXXXXXX                  X",
"XXXXXXXXXXXXXXXXXXXXXXXXXXXXXXXXXXXXXXXXXXXXX       XXXXXXXXXXXX",
"XXXXXXXXXXXXXXXXXXXXXXXXXXXXXXXXXXXXXXXXXXXXXXXXXXXXXXXXXXXXXXXX",
"XXXXXXXXXXXXXXXXXXXXXXXXXXXXXXXXXXXXXXXXXXXXXXXXXXXXXXXXXXXXXXXX",
"XXXXXXXXXXXXXXXXXXXXXXXXXXXXXXXXXXXXXXXXXXXXXXXXXXXXXXXXXXXXXXXX"
};
