/* XPM */
static char *result[] = {
/* columns rows colors chars-per-pixel */
"64 64 3 1 ",
"  c chocolate",
". c #FFE300",
"X c white",
/* pixels */
"XXXXXXXXXXXXXXXXXXXXXXXXXXXXXXXXXXXXXXXXXXXXXXXXXXXXXXXXXXXXXXXX",
"XXXXXXXXXXXXXXXXXXXXXXXXXXXXXXXXXXXXXXXXXXXXXXXXXXXXXXXXXXXXXXXX",
"XXXXX    XXXXXXXXXXXXXXXXXXXXXXXXXXXXXXXXXXXXXXXXXXXXXXXXXXXXXXX",
"   X        XXXXXXXXXXXXXXXXXXXXX   XXXXXXXXXXXXXXXXXXXXXXXXXXXX",
"               XXXXXXXXXXXXXX       XXXXXXXX    XXXXXXXXXXXXXXXX",
"                  XXXXXXXXXXX       XXXXXXXX        XXXXXXXXXXXX",
"X                    XXXXXXXX      XXXXXXXXX                XXXX",
"XXX                     XXXXXXXXXXXXXXXXXXXXXX              XXXX",
"XXXXXX                    XXXXXXXXXXXXXXXXXXXXXXXX          XXXX",
"XXXXXXXX                       XXXXXXXXXXXXXXXXXXXXXXXXXX   XXXX",
"XXXXXX            XXXX         XXXXXXXXXXX    XXXX   XXXXXXXXXXX",
"XXXXXX        XXXXXXXX           X   XXXX     XXXX   XXXXXXXXXXX",
"XXXXXX     XXXXXXXXX                   XX     XXXX   XXXX   XXXX",
"XXXXX        XXXXXXX      XXX               XXXXXX   XXXX    XXX",
"XXXXX   XX   XXXXXXX    XXXXXXX             XXXXXX   XXXX    XXX",
"XXXX    XX    XXXXXXXXXXX       X   X       XXXXXX   XXXXX   XXX",
"XXXX    XX    X   XXXXXX          XXXXX     XXXXXXXXXXXXXX   XXX",
"XXXX    XX    X   XXXXX             XXX    XXXXXXXXXXXXXXX   XXX",
"XXXX   XXX   XX   XXXXX    XXX       XX    XXXXXXXXXXXXXXXXXXXXX",
"XXXXXXXXXX   XXXXXXXX     XXXXX             XXXXXXXXXXXXXXXXXXXX",
"XXXXXXXXXXXXXXXXXXXX      XX                 XXXXXXXXXXXXXXXXXXX",
"XXXXXXXXXX   XXXXXX     X      X              XXXXXXXXXXXXXXXXXX",
"XXXXXXXXXX   XXXXX             XX      X       XXXXXXXXXXXXXXXXX",
"XXXXXXXXXX   XXXXX    X        XXX     XXXX     XXXXXXXXXXXXXXXX",
"XXXXXXXXXXXXXXX       X         XXX     XXXX    XX     XXXX   XX",
"XXXXXX........        XXXX      XXXX     XXXX   X      XXXX   XX",
"XXXXX ........    ...    XXXX   XXXXX     XXX   X      XXXX   XX",
"XXXX  ........   X....   XXXXXXXXXXXXX      XXXXX      XXXX   XX",
"XXXX  ...XXXX   XX..... ....XXX  ...XX...    X......   XXXX   XX",
"XXXX  ...   XXXXXXX.........     ...XX..............   XXXX   XX",
"XXXX  ...  .....X   ........     ...XX..............   XXX    XX",
"XXXX  ..........X   X......      ....X..........   X   XXX    XX",
"XXXX  ..........X   XX......     .... XXXX....XX   X   XXX   XXX",
"XXXX  .......XXXXXXXXX.......     ...    X....     X   XXXXXXXXX",
"XXXX  ....XXXXXXXXXX .........    ....   XX...     X   XXXXXXXXX",
"XXXX  ....XXX        .... .....   ....   XX....        XXXXXXXXX",
"XXXX   ...  X       ....XXX.....   ...    X....        X   XXXXX",
"XXXX   ..........  .....X   ..... X....   X ....    XXX     XXXX",
"XXXX   ..........  ....      .....X....   X ....   XXXX     XXXX",
"XXXX   ..........  ...       X....XX...   X  ...XXXXXXX     XXXX",
"XXXXXXXXXX   X             XXXX...XXXXX   XXX...XXXXXX      XXXX",
"XXXXXXXXX                XXXXXXXXXXXXXX   XXXXXXXXXXXX       XXX",
"XXXXXXXXX              XXXXXXXX            XXXXXXXXXX         XX",
"XXXXXXXXX            XXXXXXXXXX            XXXXXXXXXX    X    XX",
"XXXXXXXXXXXX      XX        XXX        X   XXXXXXXXXX   XXX    X",
"XXXXXXX    X   XXX          XXX     XXXXXXXXXXXXXXXXX   XXX     ",
"XXXXXXX    XXXXXXX          XXXX     XXXXXXX   XXXXXX   XXXX    ",
"XXXXXXX    XXXXXXX     X    XXXXX    XXXXXXX   XXXXXXXXXXXXXX   ",
"XXXXXXXXXXXXXXXXXXXXXXXX    XXXXXX   XXXXXXX   XXXXXXXXXXXXXX   ",
"XXXXXXXXXXXXXXXXXXXXXXXXX    XXXXX   XXXXXXX   XXXXXXXXXXXXXXX  ",
"XXXXXXXXXXXXXXX       XXX     XXXX   XXXXXXX   XXXXXXX   XXXXX  ",
"XXXXXXXXXXX                          XXXXXXXXXXXXXXXXX   XXXXX  ",
"XXXXXXXXX                            XXXXXXXXXXXXXXX       XXXXX",
"XXX   XX       XXXXX                  XXXXX   XXXXXX       XXXXX",
"XXX          XXXXXXXXXXXXXX              XX    XXXXX       XXXXX",
"XXX          XXXXXXXXXXXXXXXXXXX               XXXXXXX    XXXXXX",
"XXX                          XXXXX             XXXXXXXXXXXXXXXXX",
"XXXXXX                       XXXXX             XX              X",
"XXXXXXXXXXX                  XXXXX    XXX                      X",
"XXXXXXXXXXXXXXXXXXXXXXXXXXXXXXXXXXXXXXXXXXXXX                  X",
"XXXXXXXXXXXXXXXXXXXXXXXXXXXXXXXXXXXXXXXXXXXXX       XXXXXXXXXXXX",
"XXXXXXXXXXXXXXXXXXXXXXXXXXXXXXXXXXXXXXXXXXXXXXXXXXXXXXXXXXXXXXXX",
"XXXXXXXXXXXXXXXXXXXXXXXXXXXXXXXXXXXXXXXXXXXXXXXXXXXXXXXXXXXXXXXX",
"XXXXXXXXXXXXXXXXXXXXXXXXXXXXXXXXXXXXXXXXXXXXXXXXXXXXXXXXXXXXXXXX"
};
