/* XPM */
static char *result[] = {
/* columns rows colors chars-per-pixel */
"54 54 220 2 ",
"   c #010101",
".  c #0C0502",
"X  c #03030C",
"o  c #0D0A06",
"O  c #120502",
"+  c #130904",
"@  c #1B0E06",
"#  c #110C09",
"$  c #1A0503",
"%  c #1E1105",
"&  c #1D1109",
"*  c #12100F",
"=  c #010412",
"-  c #050914",
";  c #0C0C15",
":  c #030A1A",
">  c #0C0E19",
",  c #00011B",
"<  c #120E17",
"1  c #161314",
"2  c #1C1515",
"3  c #14111A",
"4  c #1C141B",
"5  c #0E1017",
"6  c #250E00",
"7  c #280402",
"8  c #231106",
"9  c #2C1504",
"0  c #241409",
"q  c #2A160B",
"w  c #2C1A0D",
"e  c #351600",
"r  c #331C0C",
"t  c #391A06",
"y  c #2E1E13",
"u  c #331E10",
"i  c #381C13",
"p  c #370500",
"a  c #3C240B",
"s  c #362112",
"d  c #3B2414",
"f  c #3E2817",
"g  c #3C291D",
"h  c #35241C",
"j  c #2C241C",
"k  c #071B3E",
"l  c #00002F",
"z  c #2A2422",
"x  c #3B362C",
"c  c #322734",
"v  c #3F2D2C",
"b  c #491B00",
"n  c #501D01",
"m  c #422402",
"M  c #4C2C00",
"N  c #482607",
"B  c #543302",
"V  c #593600",
"C  c #412716",
"Z  c #442A16",
"A  c #442B19",
"S  c #492E1C",
"D  c #462918",
"F  c #532D18",
"G  c #4D321D",
"H  c #51351F",
"J  c #563415",
"K  c #512D00",
"L  c #422D21",
"P  c #4D3323",
"I  c #47352B",
"U  c #523621",
"Y  c #563923",
"T  c #593B24",
"R  c #573B2A",
"E  c #5B3D29",
"W  c #583524",
"Q  c #4C3631",
"!  c #4D3E31",
"~  c #402F3F",
"^  c #68451B",
"/  c #4C4235",
"(  c #564736",
")  c #62422E",
"_  c #6B452A",
"`  c #6D4B36",
"'  c #6C4C38",
"]  c #654935",
"[  c #734E39",
"{  c #724C35",
"}  c #76523B",
"|  c #7B553D",
" . c #775535",
".. c #6C543F",
"X. c #0A114E",
"o. c #0B254B",
"O. c #31324E",
"+. c #162C6C",
"@. c #0C3671",
"#. c #233E72",
"$. c #223C6A",
"%. c #4D3D4A",
"&. c #453B52",
"*. c #384775",
"=. c #5B5042",
"-. c #544656",
";. c #5C535C",
":. c #4F4256",
">. c #675948",
",. c #7C5640",
"<. c #7D5941",
"1. c #725B47",
"2. c #625559",
"3. c #7C6958",
"4. c #72614E",
"5. c #4B4A6D",
"6. c #474A73",
"7. c #575870",
"8. c #5E606F",
"9. c #6E676D",
"0. c #6D6B7A",
"q. c #726E73",
"w. c #805A3F",
"e. c #845C44",
"r. c #885F48",
"t. c #8C644A",
"y. c #93664C",
"u. c #956A4E",
"i. c #8A6855",
"p. c #946B52",
"a. c #9B6E52",
"s. c #82735E",
"d. c #9D7157",
"f. c #A17357",
"g. c #A97657",
"h. c #A57659",
"j. c #A97759",
"k. c #AC7B5D",
"l. c #B07D5F",
"z. c #8C7C67",
"x. c #9F786D",
"c. c #9A7766",
"v. c #867176",
"b. c #AD7E61",
"n. c #A77D60",
"m. c #B17F60",
"M. c #94826A",
"N. c #9A876F",
"B. c #9D8B74",
"V. c #988770",
"C. c #8C806B",
"Z. c #AE8163",
"A. c #A68569",
"S. c #B38263",
"D. c #B3896A",
"F. c #A18C74",
"G. c #AA8B71",
"H. c #AA977D",
"J. c #AB987E",
"K. c #B59375",
"L. c #B99475",
"P. c #BA997C",
"I. c #B79679",
"U. c #1B4389",
"Y. c #174D92",
"T. c #334984",
"R. c #27529B",
"E. c #34589B",
"W. c #305090",
"Q. c #135EB4",
"!. c #1D5AAC",
"~. c #2358A4",
"^. c #2E5DA9",
"/. c #355DA4",
"(. c #0961B7",
"). c #3661AB",
"_. c #2765B7",
"`. c #3568B5",
"'. c #44548B",
"]. c #425996",
"[. c #556597",
"{. c #6C6D82",
"}. c #636786",
"|. c #706F81",
" X c #7A7F96",
".X c #757E99",
"XX c #727995",
"oX c #686F91",
"OX c #4C6AA8",
"+X c #697CAB",
"@X c #8B7C86",
"#X c #887C87",
"$X c #7B819A",
"%X c #798199",
"&X c #6C83B5",
"*X c #7087B8",
"=X c #868B9D",
"-X c #979295",
";X c #A89888",
":X c #B59E82",
">X c #B4A186",
",X c #BCA386",
"<X c #BCA68A",
"1X c #BEA98D",
"2X c #B7A388",
"3X c #848CA5",
"4X c #8E93A5",
"5X c #999DAD",
"6X c #9797A1",
"7X c #929BB4",
"8X c #98A1B9",
"9X c #A5A9B4",
"0X c #C1AB8E",
"qX c #C3A689",
"wX c #C2AE91",
"eX c #C5B193",
"rX c #C9B496",
"tX c #CDB899",
"yX c #D2BB9C",
"uX c None",
/* pixels */
"uXuXuXuXuXuXuXuXuXuXuXuXuXuX                    uXuXuX          uXuXuXuXuXuXuXuXuXuXuXuXuXuXuXuXuXuXuXuXuXuX",
"uXuXuXuXuXuXuXuXuXuXuXuXuXuX    . . + . . . . . uXuXuX. . .     uXuXuXuXuXuXuXuXuXuXuXuXuXuXuXuXuXuXuXuXuXuX",
"uXuXuXuXuXuXuXuXuXuXuXuXuXuX  + y d f d s s w 8 O uX0 s d w .     uXuXuXuXuXuXuXuXuXuXuXuXuXuXuXuXuXuXuXuXuX",
"uXuXuXuXuXuXuXuXuXuXuXuXuX    q A U Y U G G d w +   w S U Z %             uXuXuXuXuXuXuXuXuXuXuXuXuXuXuXuXuX",
"uXuXuXuXuXuXuXuXuXuXuXuXuXuX  q A U ) Y Y H G d w . s U T G q   # % % 0 % % uXuXuXuXuXuXuXuXuXuXuXuXuXuXuXuX",
"uXuXuXuXuXuXuXuXuXuXuXuXuXuX  O w d S Y ) Y H S d w d U T G s w s Z S S f d # uXuXuXuXuXuXuXuXuXuXuXuXuXuXuX",
"uXuXuXuXuXuXuXuXuXuXuXuXuXuX        s G H / J H S d A U T G f f S H H H Y f &   uXuXuXuXuXuXuXuXuXuXuXuXuXuX",
"uXuXuXuXuXuXuXuXuXuXuXuXuX+ @ @ # 8 d G Y ^ ) H G S G U T G S G J / ^ ) ) H f 0 + uXuXuXuXuXuXuXuXuXuXuXuXuX",
"uXuXuXuXuXuXuXuXuXuXuXuX  @ w d f S G U Y T T T U P H Y T U H U U T ) ) H H G f y . uXuXuXuXuXuXuXuXuXuXuXuX",
"uXuXuXuXuXuXuXuXuXuXuX  + q d S G T T T Y Y Y Y Y T Y Y Y T Y T Y Y H H H ) ) U Z &   uXuXuXuXuXuXuXuXuXuXuX",
"uXuXuXuXuXuXuXuXuXuX+ @ w C S H T T T T T Y Y Y T T T Y U T T T T T T J Y Y ^ Y G f w & uXuXuXuXuXuXuXuXuXuX",
"uXuXuXuXuXuXuXuX    & r f S H Y Y T Y T T T T Y Y T Y Y T T T T T T T ) Y T Y Y T H S u .   uXuXuXuXuXuXuXuX",
"uXuXuXuXuXuXuXuX    q d A G T T T T U T Y Y Y Y Y T Y T T T T H Y H T H Y Y Y Y T T Y d .   uXuXuXuXuXuXuXuX",
"uXuXuXuXuXuXuXuX  . 0 d A U T T T T U G G G Y T Y Y Y Y U U G G C Z Z S G U T T T T H s     uXuXuXuXuXuXuXuX",
"uXuXuXuXuXuXuXuX  . 8 s A H Y T T T U S A S Y Y Y T T Y Y G G C d s a S H Y T T T T G d .   uXuXuXuXuXuXuXuX",
"uXuXuXuXuXuXuXuX    0 s A G U U Y U G f f G U T T Y T T Y G f f U ) ] ` ` ) T U U T U d 8 . uXuXuXuXuXuXuXuX",
"uXuXuXuXuXuXuXuX    q s A A S S S G A f C G H T Y Y T T Y Z 8 C ` t.u.p.y.| W t S Y Y S i 0 +   uXuXuXuXuXuX",
"uXuXuXuXuXuXuXuX    0 d C A C C f C f f C G Y T T T ^ H Y A r Y r.j.m.m.k.t.( a Z Y H G f u &     uXuXuXuXuX",
"uXuXuXuXuXuXuXuX    q s A A A A A d i r d S Y T T Y H G G T ' e.a.j.m.S.k.a.e.' ) Y G S A u 8     uXuXuXuXuX",
"uXuXuXuXuXuXuXuX  . q i A G U G S d r 9 9 Z H T T T S 9 d ' y.g.g.k.g.j.k.g.j.a.,.W a C f s 8     uXuXuXuXuX",
"uXuXuXuXuXuXuXuX    q i A U U Y P C A S P U Y Y Y Y U Z Y ,.a.k.b.n.b.b.Z.Z.k.d.<.U 9 r C i &     uXuXuXuXuX",
"uXuXuXuXuXuXuXuX    0 s A U T T G S ) | <.' G f S Y _ { | e.e.p.n.K.I.P.K.A.d.e.) g 8 u C s 8     uXuXuXuXuX",
"uXuXuXuXuXuXuXuX  . 0 d A U T T G Y } a.f.e.P 6 a Y [ y.a.w.W >.M.,X0X0X,XB.4.f 9 0 0 i C d 0     uXuXuXuXuX",
"uXuXuXuXuXuXuXuX    0 i A S U U G T e.g.k.a.' U C G <.b.S.i.u x z.<XtXtX1XB.=.      & y d w %   uXuXuXuXuXuX",
"uXuXuXuXuXuXuXuX    q d A S S G Z T w.g.k.g.p.| F p 1.G.P.d.j z z.2XrXrX1XB.( X o . & 0 q q @ uXuXuXuXuXuXuX",
"uXuXuXuXuXuXuXuX  . q d A C C A Z T | a.k.S.Z.a.' b 4.J.<XN./ I z.<XrXrX1XB.=.    * # . .   uXuXuXuXuXuXuXuX",
"uXuXuXuXuXuXuXuXuX  8 r d d f C a H | a.l.S.S.k.i.3.C.>X1XJ.3.3.F.1XeXeX1X;Xz.>./ j       uXuXuXuXuXuXuXuXuX",
"uXuXuXuXuXuXuXuXuXuX+ + 0 i d C t S } f.m.S.k.Z.G.H.>X<X1X<XJ.;X>X<X0XwX1X<X:XB.3.x   . uXuXuXuXuXuXuXuXuXuX",
"uXuXuXuXuXuXuXuXuXuXuX  . w d f 9 f { p.k.j.j.S.P.0XwXwX1X1X1XeXwX1X0XwX0XwXwX>XC./   uXuXuXuXuXuXuXuXuXuXuX",
"uXuXuXuXuXuXuXuXuXuXuXuX  @ w s r f ) | y.a.j.D.L.P.<X1X1XtXeXtXeXwXwX1X0X0XqXI.z./   uXuXuXuXuXuXuXuXuXuXuX",
"uXuXuXuXuXuXuXuXuXuXuXuXuX. O q i D S P ] t.k.S.S.S.I.<X1XrX1X1XwXwXeX1XwXqXL.S.t.I   uXuXuXuXuXuXuXuXuXuXuX",
"uXuXuXuXuXuXuXuXuXuXuXuXuXuX  + u d r O A  .p.j.g.g.D.P.1X1X1X1X<X<X<XqX,XI.Z.y.} L   uXuXuXuXuXuXuXuXuXuXuX",
"uXuXuXuXuXuXuXuXuXuXuXuXuXuXuX. 0 w q 6 f E [ t.a.k.m.D.I.I.L.L.L.L.L.P.I.A.p.' R g uXuXuXuXuXuXuXuXuXuXuXuX",
"uXuXuXuXuXuXuXuXuXuXuXuXuXuXuXuX  o q s A d D ] y.k.S.m.b.m.S.b.Z.Z.Z.S.b.p.' y 0 uXuXuXuXuXuXuXuXuXuXuXuXuX",
"uXuXuXuXuXuXuXuXuXuXuXuXuXuXuXuX    & d C 9 $ P ,.i.n.n.x.x.x.n.x.x.c.f.y.} A   uXuXuXuXuXuXuXuXuXuXuXuXuXuX",
"uXuXuXuXuXuXuXuXuXuXuXuXuXuXuXuX    8 s C d r S E ,.i.v.@X#X#X@X@X@Xv.3.[ T s   uXuXuXuXuXuXuXuXuXuXuXuXuXuX",
"uXuXuXuXuXuXuXuXuXuXuXuXuXuXuXuX    q i Z f f Z n T 2.|. X$X.X X X X|.;.I e q o . uXuXuXuXuXuXuXuXuXuXuXuXuX",
"uXuXuXuXuXuXuXuXuXuXuXuXuXuXuXuX. . . 6 t Z S S M G ;.{.%X%X.X%X3X3X#X8.h $ .   uXuXuXuXuXuXuXuXuXuXuXuXuXuX",
"uXuXuXuXuXuXuXuXuXuXuXuXuXuXuXuX      . 7 m G Y B U 2.|..X.XXX$X4X5X=X9.I $     uXuXuXuXuXuXuXuXuXuXuXuXuXuX",
"uXuXuXuXuXuXuXuXuXuXuXuXuXuXuXuXx I / ( ( ( ) T B W 2.|..X$X$X=X7X9X6Xq.I p C g h uXuXuXuXuXuXuXuXuXuXuXuXuX",
"uXuXuXuXuXuXuXuXuXuXuXuXuXuXuX( 3.C.V.N.z.3.] J K Y 2.0.$X=X4X5X9X9X6Xq.Q J } ,.' g uXuXuXuXuXuXuXuXuXuXuXuX",
"uXuXuXuXuXuXuXuXuXuXuXuXuXuX  =.N.2X1X1XP.M...N N W 2.|.=X4X5X9X9X9X4X0.Q _ p.a.,.A   uXuXuXuXuXuXuXuXuXuXuX",
"uXuXuXuXuXuXuXuXuXuXuXuXuX#   >.H.eXyXtX1XF. .m N H ;.}.XX*X7X8X8X7X3X8.Q  .f.j.t.P   uXuXuXuXuXuXuXuXuXuXuX",
"uXuXuXuXuXuXuXuXuXuXuXuXuX#   4.H.rXyXyX0XF. .b n V ;.[.OX+X&X*X*X&XoX5.P w.g.k.t.P   uXuXuXuXuXuXuXuXuXuXuX",
"uXuXuXuXuXuXuXuXuXuXuXuXuX#   =.F.eXrXeX<Xx.1.D F E 5.].^.`.`.`.`.`./.*.I  .a.f.e.L   uXuXuXuXuXuXuXuXuXuXuX",
"uXuXuXuXuXuXuXuXuXuXuXuXuXuX  ( s.F.;X;X-X#X7.6.5.5.'./.!.Q.Q.(.(.(.Y.*.v _ e.r.' g   uXuXuXuXuXuXuXuXuXuXuX",
"uXuXuXuXuXuXuXuXuXuXuXuXuXuX= x ( >.9.}.oX[.)././././.R.R.~._._._._.~.$.z m R R I j uXuXuXuXuXuXuXuXuXuXuXuX",
"uXuXuXuXuXuXuXuXuXuXuXuXuXuXuXo O # X.+.U.R.).`.`.).~.U.U.R.^.)._.^.R.$.3 . + + X y uXuXuXuXuXuXuXuXuXuXuXuX",
"uXuXuXuXuXuXuXuXuXuXuXuXuXuXuX      l X.+.*.'.].E.Y.U.@.+.#.T.W.E.'.*.O.:         3 uXuXuXuXuXuXuXuXuXuXuXuX",
"uXuXuXuXuXuXuXuXuXuXuXuXuXuXuX=   X 4 c O.%.-.&.&.o.o.k k o.O.&.-.-.:.c > X X - - 3 uXuXuXuXuXuXuXuXuXuXuXuX",
"uXuXuXuXuXuXuXuXuXuXuXuX> > uX: = X % e m M V K e .     O 6 e b B B M w - , : uXuXuX> > > uXuXuXuXuXuXuXuXuX",
"uXuXuXuXuXuXuXuXuXuXuXuX> > uX> = X @ 9 r a N N q .     O 6 q t a N a w > : > uXuXuX> > > uXuXuXuXuXuXuXuXuX",
"uXuXuXuXuXuXuXuXuXuXuXuX> > > > > > < 1 1 2 2 2 1 ; ; ; < < 1 2 2 2 2 4 3 5 > > > > > > > uXuXuXuXuXuXuXuXuX",
"uXuXuXuXuXuXuXuXuXuXuXuX> > > uXuXuXuXuXuXuXuXuXuXuXuXuXuXuXuXuXuXuXuXuXuXuXuX> > > > > > uXuXuXuXuXuXuXuXuX"
};
