/* XPM */
static char *result[] = {
/* columns rows colors chars-per-pixel */
"64 64 3 1 ",
"  c red",
". c chocolate",
"X c white",
/* pixels */
"XXXXXXXXXXXXXXXXXXXXXXXXXXXXXXXXXXXXXXXXXXXXXXXXXXXXXXXXXXXXXXXX",
"XXXXXXXXXXXXXXXXXXXXXXXXXXXXXXXXXXXXXXXXXXXXXXXXXXXXXXXXXXXXXXXX",
"XXXXX....XXXXXXXXXXXXXXXXXXXXXXXXXXXXXXXXXXXXXXXXXXXXXXXXXXXXXXX",
"...X........XXXXXXXXXXXXXXXXXXXXX...XXXXXXXXXXXXXXXXXXXXXXXXXXXX",
"...............XXXXXXXXXXXXXX.......XXXXXXXX....XXXXXXXXXXXXXXXX",
"..................XXXXXXXXXXX...      XXXXXX........XXXXXXXXXXXX",
"X....................XXXX     ..        XXXX................XXXX",
"XXX....................       XX         XXXXX..............XXXX",
"XXXXXX...............         XXXXXX      XXXXXXXX..........XXXX",
"XXXXXXXX............       ....XXXXXXX     XXXXXXXXXXXXXX...XXXX",
"XXXXXX............XX     ......XXXXXXXX     ..XXXX...XXXXXXXXXXX",
"XXXXXX........XXXXX    ..........X...XXX     .XXXX...XXXXXXXXXXX",
"XXXXXX.....XXXXXXXX    ................XX    .XXXX...XXXX...XXXX",
"XXXXX........XXXXXX     ..XXX.............   XXXXX...XXXX....XXX",
"XXXXX...XX...XXXXXXX     XXXXXX...........    XXXX...XXXX....XXX",
"XXXX....XX....XXXXXXX     ......X...X.....    XXXX...XXXXX...XXX",
"XXXX....XX....X...XXXX      ......XXXXX...    XXXXXXXXXXXX...XXX",
"XXXX....XX....X...XXXXX        .....XXX...    XXXXXXXXXXXX...XXX",
"XXXX...XXX...XX...XXXXX.            .XX..    XXXXXXXXXXXXXXXXXXX",
"XXXXXXXXXX...XXXXXX   ....                   XXXXXXXXXXXXXXXXXXX",
"XXXXXXXXXXXXXXXXXXX   ....XX.               .XXXXXXXXXXXXXXXXXXX",
"XXXXXXXXXX...XXXXXX    .X.....   .         ...XXXXXXXXXXXXXXXXXX",
"XXXXXXXXXX...XXXXX.     ......   ......X.......XXXXXXXXXXXXXXXXX",
"XXXXXXXXXX...XXXXX..    .....    X.....XXXX.....XXXXXXXXXXXXXXXX",
"XXXXXXXXXXXXXXX......    ....    XX.....    ....XX.....XXXX...XX",
"XXXXXXXXXXXXXX.......     ...   XXXX.       X...X......XXXX...XX",
"XXXXX...XXXXX.....X...     XX   XXX         X...X......XXXX...XX",
"XXXX....XXXXX....XX....     X   XX        ..XXXXX......XXXX...XX",
"XXXX....XXXXX...XXXXX...               ......XXX.......XXXX...XX",
"XXXX....X...XXXXXXXXX....            XXX......XX.......XXXX...XX",
"XXXX........XXXXX...XX...           XXXXX.....XX...X...XXX....XX",
"XXXX........XXXXX...XXXX..        ..XXXXXXX...XX...X...XXX....XX",
"XXXX.......XXXXXX...XXXX...     ......XXXXXXXXXX...X...XXX...XXX",
"XXXX......XXXXXXXXXXXX......   ..........XXX.......X...XXXXXXXXX",
"XXXX.....XXXXXXXXXXX........   ..........XXX.......X...XXXXXXXXX",
"XXXX...XXXXXX.............XX   ..........XXX...........XXXXXXXXX",
"XXXX...XX...X...........XXX    ....XXX....X............X...XXXXX",
"XXXX...XX...X..........XX..    ...XXXX....X.........XXX.....XXXX",
"XXXX...XX....XXX...........   ...XXXXXX...X........XXXX.....XXXX",
"XXXX...XX....X.............    XXXXXXXX...X.....XXXXXXX.....XXXX",
"XXXXXXXXXX...X.............    XXXXXXXX...XXXXXXXXXXXX......XXXX",
"XXXXXXXXX................X     XXXXXXXX...XXXXXXXXXXXX.......XXX",
"XXXXXXXXX..............XX      ............XXXXXXXXXX.........XX",
"XXXXXXXXX............XXX        ...........XXXXXXXXXX....X....XX",
"XXXXXXXXXXXX......XX...         .......X...XXXXXXXXXX...XXX....X",
"XXXXXXX....X...XXX.....     X    ...XXXXXXXXXXXXXXXXX...XXX.....",
"XXXXXXX....XXXXXXX....      X    ....XXXXXXX...XXXXXX...XXXX....",
"XXXXXXX....XXXXXXX...       XX    ...XXXXXXX...XXXXXXXXXXXXXX...",
"XXXXXXXXXXXXXXXXXXXX       .XX    ...XXXXXXX...XXXXXXXXXXXXXX...",
"XXXXXXXXXXXXXXXXXXX        ..XX    ..XXXXXXX...XXXXXXXXXXXXXXX..",
"XXXXXXXXXXXXXXX....       ....X      XXXXXXX...XXXXXXX...XXXXX..",
"XXXXXXXXXXX........      .......     XXXXXXXXXXXXXXXXX...XXXXX..",
"XXXXXXXXX.........      .........    XXXXXXXXXXXXXXX.......XXXXX",
"XXX...XX.......XXX      ..............XXXXX...XXXXXX.......XXXXX",
"XXX..........XXXXX     XXXX..............XX....XXXXX.......XXXXX",
"XXX..........XXXXX    XXXXXXXXXX...............XXXXXXX....XXXXXX",
"XXX...............   ........XXXXX.............XXXXXXXXXXXXXXXXX",
"XXXXXX.......................XXXXX.............XX..............X",
"XXXXXXXXXXX..................XXXXX....XXX......................X",
"XXXXXXXXXXXXXXXXXXXXXXXXXXXXXXXXXXXXXXXXXXXXX..................X",
"XXXXXXXXXXXXXXXXXXXXXXXXXXXXXXXXXXXXXXXXXXXXX.......XXXXXXXXXXXX",
"XXXXXXXXXXXXXXXXXXXXXXXXXXXXXXXXXXXXXXXXXXXXXXXXXXXXXXXXXXXXXXXX",
"XXXXXXXXXXXXXXXXXXXXXXXXXXXXXXXXXXXXXXXXXXXXXXXXXXXXXXXXXXXXXXXX",
"XXXXXXXXXXXXXXXXXXXXXXXXXXXXXXXXXXXXXXXXXXXXXXXXXXXXXXXXXXXXXXXX"
};
