/* XPM */
static char *result[] = {
/* columns rows colors chars-per-pixel */
"64 64 96 2 ",
"   c #000000",
".  c #0B0005",
"X  c #0F000A",
"o  c #12000B",
"O  c #150611",
"+  c #170812",
"@  c #1A0D14",
"#  c #1C1016",
"$  c #1E1419",
"%  c #20161B",
"&  c #231A1D",
"*  c #261E21",
"=  c #262022",
"-  c #2A2324",
";  c #2E2729",
":  c #2E2929",
">  c #322D2D",
",  c #35302F",
"<  c #373231",
"1  c #393433",
"2  c #3D3837",
"3  c #3F3B39",
"4  c #413E3B",
"5  c #45413E",
"6  c #474341",
"7  c #494542",
"8  c #4D4A46",
"9  c #4F4B48",
"0  c #524E4A",
"q  c #56534E",
"w  c #5A5752",
"e  c #5D5B55",
"r  c #605E57",
"t  c #625F5A",
"y  c #65635C",
"u  c #68665F",
"i  c #696660",
"p  c #6C6B63",
"a  c #706E66",
"s  c #716F68",
"d  c #717067",
"f  c #75736B",
"g  c #78776E",
"h  c #7A786F",
"j  c #7C7B72",
"k  c #817F76",
"l  c #828177",
"z  c #848379",
"x  c #88877D",
"c  c #8A897E",
"v  c #8D8C82",
"b  c #908F85",
"n  c #919087",
"m  c #95948A",
"M  c #98978D",
"N  c #9A998E",
"B  c #9E9E92",
"V  c #A09F93",
"C  c #A1A194",
"Z  c #A6A699",
"A  c #A8A79B",
"S  c #AAAA9D",
"D  c #AEADA1",
"F  c #B0AFA3",
"G  c #B3B2A5",
"H  c #B6B6A8",
"J  c #B8B7A9",
"K  c #BBBAAC",
"L  c #BFBEB0",
"P  c #C0BFB1",
"I  c #C4C4B5",
"U  c #C6C6B8",
"Y  c #C8C7B8",
"T  c #CCCCBC",
"R  c #D0CFBF",
"E  c #D0D0BF",
"W  c #CFCFC0",
"Q  c #D4D4C4",
"!  c #D8D7C6",
"~  c #D8D8C7",
"^  c #D7D7C8",
"/  c #D7D8C8",
"(  c #DCDCCB",
")  c #E0E0CE",
"_  c #E5E5D3",
"`  c #E7E8D6",
"'  c #E9E9D6",
"]  c #EDEDDA",
"[  c #EFF0DD",
"{  c #F1F1DE",
"}  c #F5F5E1",
"|  c #F7F8E4",
" . c #F9F9E6",
".. c #FDFDE9",
"X. c ivory",
"o. c None",
/* pixels */
"o.o.o.o.o.o.o.o.o.o.= & @                                                                                     . @ * * o.o.o.o.o.",
"o.o.o.o.o.o.o.o.o.o.- & @                                                                                     X # $ * o.o.o.o.o.",
"o.o.o.o.o.o.o.o.o.o.@ # # $ & & & & & & & & & & & & & & & & & & & & & & & & & & & & & & & & & & & & & & % $ % $ # # # o.o.o.o.o.",
"o.o.o.o.o.o.o.o.o.o.    & 2 q e u d f d f d a a a a a a a a a a d a a a a a a a a a a a d d f a p i u y e 0 6 < $ .   o.o.o.o.o.",
"o.o.o.o.o.o.o.o.o.o.    - q d c N C Z Z C V V V C C C C C C C C V C C C C C C C V V C C C C C B N N M v l f t 6 &     o.o.o.o.o.",
"o.o.o.o.o.o.o.o.o.o.    ; u v A K Y R T Y Y Y I I I I I I I I I I Y I I I I I I Y Y I Y Y Y I I L K J D B v g q *     o.o.o.o.o.",
"o.o.o.o.o.o.o.o.o.o.    > f C I ! ) ' ' _ ) ) ) ) ) ) ) ) ) ) ) ) ) ) ) ) ) ) ) ) ) ) _ ) ) ) ) ( Q Q U J C v e =     o.o.o.o.o.",
"o.o.o.o.o.o.o.o.o.o.    , k D T _ }  . .{ { [ [ { { { { { { { { { { { { { { { { { { { { { { { [ ' ` ) Q U D n i -     o.o.o.o.o.",
"o.o.o.o.o.o.o.o.o.o.    < z H Q ] ........ .| |  . . . ...{ ....{ ..{ .. . . ...{ .. . .{ ......[ ] ` ( W G M p -     o.o.o.o.o.",
"o.o.o.o.o.o.o.o.o.o.    < z J ~ { ..X.X... .| | { ..{ ..{ ..{ { ..{ ........................{ { [ ] ` ^ U G m p -     o.o.o.o.o.",
"o.o.o.o.o.o.o.o.o.o.    < z J ~ { ...... .} } } { { { { {  .{ { { ..{ .............. . .....{ { ] ` _ ^ U F m i -     o.o.o.o.o.",
"o.o.o.o.o.o.o.o.o.o.    , l H Q ' ......| { [ [ { { { { { { { [ { { { {  .{ ..{  . . .{ { { { ] ` ` ) Q I D n i -     o.o.o.o.o.",
"o.o.o.o.o.o.o.o.o.o.    , h S T ) [ { { { { { { { { { { { { [ { { { [ ] ] ] [ ] ' [ ] [ { { { ] ` _ ( ^ L D n i -     o.o.o.o.o.",
"o.o.o.o.o.o.o.o.o.o.    > a N J T ( ' ' ' { { { { { { { { { { { [ ] ) ) ~ ~ ~ E ~ ~ ( ) ' ] { ] ] ` ( ^ I D n i -     o.o.o.o.o.",
"o.o.o.o.o.o.o.o.o.o.    ; r l N D I T ( _ ] { { { { { { { ..{ { ] ) ~ T I H G G H K I T ( ' [ { [ ` ) ^ I D b i -     o.o.o.o.o.",
"o.o.o.o.o.o.o.o.o.o.    = 5 e a l m G Y ~ ] {  .{ { { { { { { ..] ~ Y G N c l l l c C H E ) ] { [ ` ( Q I D n i -     o.o.o.o.o.",
"o.o.o.o.o.o.o.o.o.o.  . $ - & & 3 i n H E _ {  ...{ { { { { { { ' Q K m p 7 ; & > 0 h V P ( ] } [ ` _ Q U D n i * X   o.o.o.o.o.",
"o.o.o.o.o.o.o.o.o.o.& $ #         & f Z T _ }  .{ ..{ [ { { ..{ ' E S l 1           9 v K ^ ] { { ] ) Q L D n i - .   o.o.o.o.o.",
"o.o.o.o.o.o.o.o.o.o.= * @           u C Y _ }  .{ { { { ....{ ..' T A d             * k H ^ ] } { ] ) ^ I D n i -     o.o.o.o.o.",
"o.o.o.o.o.o.o.o.o.o.- * @           t N Y _ { ......{ { { ....{ ' T A p             * k F ^ ] } } ] ) Q L D n i -     o.o.o.o.o.",
"o.o.o.o.o.o.o.o.o.o.- * @           u N Y _ { ......{ ..{ ......_ T A d             > z H ^ ] } { ] ) ^ L F n i ;     o.o.o.o.o.",
"o.o.o.o.o.o.o.o.o.o.* $ @         . d Z Y ) { ....{ { ..{ ....{ ' T S h ;           5 v J ^ ] } } ` ) Q L F n i -     o.o.o.o.o.",
"o.o.o.o.o.o.o.o.o.o.O + $ o       9 z D E ' {  .{ { ] ] { { { { ' E H c w         @ t M L ^ ] } { ] ) ^ L F n i *     o.o.o.o.o.",
"o.o.o.o.o.o.o.o.o.o.    * , 1 3 q h N K ! ' { { _ ) E E ( ] [ { ' ! I C j e 9 7 0 y z Z U ( ] { { ` ) ^ U F n i ;     o.o.o.o.o.",
"o.o.o.o.o.o.o.o.o.o.    * 7 e s z N G T ) ] ] ' Q P F D K E _ [ ] ) T G N v z l z n B J W _ ] } [ ` ) Q L D n i *     o.o.o.o.o.",
"o.o.o.o.o.o.o.o.o.o.    - w g v C H U ( ' [ ] ( I B j j m I ( ] { ' ( U H S Z Z A D H U ^ ` ] { [ ` ) Q U D n i ;     o.o.o.o.o.",
"o.o.o.o.o.o.o.o.o.o.    ; u v Z K T ( _ ] } ] ^ G l 7 4 h S E ' { { _ Q W I I L I U U ^ ) ` { { ] ` _ Q L F n i *     o.o.o.o.o.",
"o.o.o.o.o.o.o.o.o.o.    > p M G T ( _ [ } } ' Q G j 4 1 f D E ' { { ' ) ^ ^ Q Q ^ ^ ^ ) ` ] [ ] ` ` ( ^ L F n i ;     o.o.o.o.o.",
"o.o.o.o.o.o.o.o.o.o.    > f C I Q _ [ } } } ] ^ K m g d n H E ' } } ] ` ) ( ) ) ) ) _ ` ] ] { ] ` ` ( Q U D n i ;     o.o.o.o.o.",
"o.o.o.o.o.o.o.o.o.o.    > h Z I ( ` [ } } } ] ) T J A Z H Y ) ' { { [ ' ` _ _ ` _ ` ` ` ] { { ] ] ` ( ^ L F n i *     o.o.o.o.o.",
"o.o.o.o.o.o.o.o.o.o.    , j A Y ( ] } } } } [ ` ) ! R T E ) ' { [ { ] ] ] ` ` ` ` ] ] ] { { { ] ` _ ) Q P F n i ;     o.o.o.o.o.",
"o.o.o.o.o.o.o.o.o.o.    , j S T _ [ | } [ [ [ ] ' ' ' ' ' ] ' { { [ [ [ ] ] [ [ ] ] ] ] { { { ] ` _ ) ^ I D n i -     o.o.o.o.o.",
"o.o.o.o.o.o.o.o.o.o.    > k G E _ {  . .{ { { { } { } } } { { { [ { { { { { { { { { { { { { { { ' _ ) Q I D n i -     o.o.o.o.o.",
"o.o.o.o.o.o.o.o.o.o.    < k G E '  .......{ { {  . ... . . .} { { ] { { } { } }  .{ {  .{  .{ { { ' ) ! U F n i -     o.o.o.o.o.",
"o.o.o.o.o.o.o.o.o.o.    < l G E ' ........{ { .. ....... . .} { { { { { { } } |  . . ..... .{ { [ ' _ ( U F m p -     o.o.o.o.o.",
"o.o.o.o.o.o.o.o.o.o.    < z H ~ ' .......... ... . . . . . .} } { { } { } } } } {  . .........{ } ] ` ( W G M p -     o.o.o.o.o.",
"o.o.o.o.o.o.o.o.o.o.    < k D E '  ..... .{  .{ } } } } } } { { { { { { { { { } { {  .{  .} } { ] ' _ ^ U F n i -     o.o.o.o.o.",
"o.o.o.o.o.o.o.o.o.o.    > g Z Y ) ' { ] ' ' ' _ _ ' _ ' ' ' ' ] ] ] ] ] ] ] ] ' ' _ ' _ ' ' ' _ _ ( ^ T L Z v i -     o.o.o.o.o.",
"o.o.o.o.o.o.o.o.o.o.    : a M G Y E ~ ~ Q E Q E T E T E Q ( ( _ ' ' ' ' ' _ ) ^ Q E T E E Q E E T U I K D M j e *     o.o.o.o.o.",
"o.o.o.o.o.o.o.o.o.o.    - r k M S H K J J G G G S A A G K U Q ( ) _ _ _ ) ^ Q U K G S A S G G G D S Z B v l p 9 *     o.o.o.o.o.",
"o.o.o.o.o.o.o.o.o.o.    * 7 y f l c v c c z z z h h h c N G I Q ^ ( ( ( ^ W I F B x g g j z z z z k j f p t 0 2 *     o.o.o.o.o.",
"o.o.o.o.o.o.o.o.o.o.o + % - > 2 4 5 5 5 5 5 5 2 = o - q j V K T ^ ( ( ( Q T J B g 0 & o ; 2 5 5 4 4 4 3 1 > : * $ + O o.o.o.o.o.",
"o.o.o.o.o.o.o.o.o.o.* & @                             . u n H Y ^ ( ) ( ^ Y G b y                             X @ * & o.o.o.o.o.",
"o.o.o.o.o.o.o.o.o.o.o.= +                               u N K W ( _ _ _ ) W J M t                               @ * o.o.o.o.o.o.",
"o.o.o.o.o.o.o.o.o.o.o.o.o.o.o.o.o.o.o.o.o.o.o.        % f C I ( ` ] ] ] _ ^ P V a .         o.o.o.o.o.o.o.o.o.o.o.o.o.o.o.o.o.o.",
"o.o.o.o.o.o.o.o.o.o.o.o.o.o.o.o.o.o.o.o.o.o.o.o.      4 l D R ) ] | } } ] ) Y F j <       o.o.o.o.o.o.o.o.o.o.o.o.o.o.o.o.o.o.o.",
"o.o.o.o.o.o.o.o.o.o.o.o.o.o.o.o.o.o.o.o.o.o.o.o.o.    5 c H E ' }  . . .} _ W G x 4     o.o.o.o.o.o.o.o.o.o.o.o.o.o.o.o.o.o.o.o.",
"o.o.o.o.o.o.o.o.o.o.o.o.o.o.o.o.o.o.o.o.o.o.o.o.      5 c H E ' | X.X...| ' Q F z 4     o.o.o.o.o.o.o.o.o.o.o.o.o.o.o.o.o.o.o.o.",
"o.o.o.o.o.o.o.o.o.o.o.o.o.o.o.o.o.o.o.o.o.o.o.o.      < z H E ]  .......} ' E D k ;       o.o.o.o.o.o.o.o.o.o.o.o.o.o.o.o.o.o.o.",
"o.o.o.o.o.o.o.o.o.o.o.o.o.o.o.o.o.o.o.o.o.o.o         o h S E '  ....... .' E S f           o o.o.o.o.o.o.o.o.o.o.o.o.o.o.o.o.o.",
"o.o.o.o.o.o.o.o.o.o.o.o.o.o.o.o.o.o.o.o.o.* o           f S E ' } ......{ ' T Z a           o - o.o.o.o.o.o.o.o.o.o.o.o.o.o.o.o.",
"o.o.o.o.o.o.o.o.o.o.o.o.o.o.o.o.o.o.o.o.% $ @         3 l D E ' }  .....{ _ R S j >         @ % $ o.o.o.o.o.o.o.o.o.o.o.o.o.o.o.",
"o.o.o.o.o.o.o.o.o.o.o.o.o.o.o.o.o.o.o.      % - - > 9 f N P ~ ' }  ... .{ ' ! K N f 8 > - - %       o.o.o.o.o.o.o.o.o.o.o.o.o.o.",
"o.o.o.o.o.o.o.o.o.o.o.o.o.o.o.o.o.o.        o 7 y j n A I E ) {  ..... . .{ ) E K A c g y 6           o.o.o.o.o.o.o.o.o.o.o.o.o.",
"o.o.o.o.o.o.o.o.o.o.o.o.o.o.o.o.o.+           e x Z K E ( ' ] {  ....... .{ ' ' ( E K Z z w           @ o.o.o.o.o.o.o.o.o.o.o.o.",
"o.o.o.o.o.o.o.o.o.o.o.o.o.o.o.* & @           p N I ~ ' { { {  . . . . . .}  .{ { ' ~ K N i           @ & = o.o.o.o.o.o.o.o.o.o.",
"o.o.o.o.o.o.o.o.o.o.o.o.o.o.o.% $ @         2 j S T _  . . .} { { { { { { { { .. .} _ T S j >         # $ % o.o.o.o.o.o.o.o.o.o.",
"o.o.o.o.o.o.o.o.o.o.o.o.o.o.o.  X * - * * 3 i n H E ) ' ] ' _ ) ) ) ) ) ) ) ' ' ] ' ( T F v u 2 % & - % o   o.o.o.o.o.o.o.o.o.o.",
"o.o.o.o.o.o.o.o.o.o.o.o.o.o.o.    - 6 e i j v B G I T E Q T Y Y I I I I I I Y E Q Q U L F B v g i e 6 *     o.o.o.o.o.o.o.o.o.o.",
"o.o.o.o.o.o.o.o.o.o.o.o.o.o.o.    ; e j n B D D S A A A Z Z C C C B C N C C C Z Z Z A D S G S B n g w -     o.o.o.o.o.o.o.o.o.o.",
"o.o.o.o.o.o.o.o.o.o.o.o.o.o.o.    , p m D L L J S n k a u p p a a d d d d a u u i s j M Z L L J D b i ;     o.o.o.o.o.o.o.o.o.o.",
"o.o.o.o.o.o.o.o.o.o.o.o.o.o.o.    < f V L W W I Z k 8         % & & & & & %         0 z D I W W K B s ;     o.o.o.o.o.o.o.o.o.o.",
"o.o.o.o.o.o.o.o.o.o.o.o.o.o.o.    1 g D I Q ^ U Z f $                               - g Z U ^ Q I Z f >     o.o.o.o.o.o.o.o.o.o.",
"o.o.o.o.o.o.o.o.o.o.o.o.o.o.o.    < g Z I Q ^ U Z f $                               - g D T ^ Q I Z f >     o.o.o.o.o.o.o.o.o.o."
};
