/* XPM */
static char *result[] = {
/* columns rows colors chars-per-pixel */
"64 64 12 1 ",
"  c #3F3851",
". c #89365C",
"X c #9E3B57",
"o c #AE444E",
"O c #BF5753",
"+ c #D25654",
"@ c #CD7363",
"# c #E27F6D",
"$ c #EDA27F",
"% c #FBCA97",
"& c #FFEAB7",
"* c #FFFAD6",
/* pixels */
"                                                        ##%%%%% ",
"&*&%%&**&%%$# #$%%&&*&%%$# #$%%& &*&%%#+  .oooOo Oooo.  ##%%%%& ",
"%%%%%%%%%%%%# #%%%%%%%%%%# #%%%% %%%%%##  oooo@@ @oooo  ##%%%%* ",
"%%%%%%%%%%%%# #%%%%%%%%%%# #%%%% %%%%%##  .oooOo Oooo.  ##%%%%* ",
"%%%%%%%%%%%$# #$%%%%%%%%$# #$%%% %%%%$##                ##%%%%& ",
"%%%%%%%%%%$## ##$%%%%%%$## ##$%% %%%$###    .O@@@@O.    ##%%%%* ",
"############# ############ ##### #######    o@@@@@@o    ##%%%%& ",
"############+ +##########+ +#### +#####+    .O@@@@O.    ##%%%%% ",
"                                                        ##%%%%& ",
"                                          .ooo@o Oooo.  ##%%%%& ",
" .XoooX.         .XoooX.         .XooooX. oooo@@ @oooo  ##$%%%% ",
" XoooooX .ooooo. XoooooX .ooooo. XooooooX .ooo@o Oooo.  ###$%%$ ",
"                                                        +###### ",
"@@@@o o@@@@o o@@@@@@o o@@@@o o@@@@@@o o@@@@o o@@@@O.            ",
"@@@@@ @@@@@@ @@@@@@@@ @@@@@@ @@@@@@@@ @@@@@@ @@@@@@o    +###### ",
"@@@@o o@@@@o o@@@@@@o o@@@@o o@@@@@@o o@@@@o o@@@@O.    ###$%%$ ",
"                                                        ##$%%%% ",
" o@@@@@o o@@@@@o o@@@@@@o o@@@@o o@@@@@o o@@@@@o Oooo.  ##%%%%% ",
" O@@@@@O O@@@@@@ @@@@@@@O O@@@@O @@@@@@@ @@@@@@@ @oooo  ##%%%%& ",
" .ooooo. .oooO@o oOooooo. .oooo. o@@@@@o o@@@@@o Oooo.  ##%%%%& ",
"                                                        ##%%%%* ",
"ooo.        .O@@@@O.  .ooo.  .ooooo.        .O@@@@O.    ##%%%%& ",
"            o@@@@@@o                        o@@@@@@o    ##%%%%% ",
"            .O@@@@O.                        .O@@@@O.    ##$%%%% ",
" +#####+                +#####+  +#####+                ###$%%$ ",
" #######  .oooOo Oooo.  #######  #######  .oooOo Oooo.  +###### ",
" %%%$###  oooo@@ @oooo  ###$%%%  %%%$###  oooo@@ @oooo          ",
" %%%%$##  .oooOo Oooo.  ##$%%%%  %%%%$##  .oooOo Oooo.  +###### ",
" %%%%%##                ##%%%%%  %%%%%##                ###$%%$ ",
" %%%%%##    .O@@@@O.    ##%%%%%  %%%%%##    .O@@@@O.    ##$%%%% ",
" &*&%%#+    o@@@@@@o    +#%%&*&  &*&%%#+    o@@@@@@o    ##%%%%% ",
"            .O@@@@O.                        .O@@@@O.    ##%%%%& ",
" &%%%%##                                                        ",
" %%%%%##  .ooo@o Oooo.  +#%%&*&  &*&%%#+  .ooO@o oOoo.  +#%%&*& ",
" %%%%$##  oooo@@ @oooo  ##%%%%%  %%%%%##  ooo@@@ @@ooo  ##%%%%% ",
" $%%$###  .ooo@o Oooo.  ##%%%%%  %%%%%##  .ooO@o oOoo.  ##%%%%% ",
" ######+                ##$%%%%  %%%%$##                ##$%%%% ",
"            .O@@@@O.    ###$%%%  %%%$###    .O@@@@O.    ###$%%% ",
" ######+    o@@@@@@o    #######  #######    o@@@@@@o    ####### ",
" $%%$###    .O@@@@O.    +#####+  +#####+    .O@@@@O.    +#####+ ",
" %%%%$##                                                        ",
" %%%%%##  .ooo@@o                         .ooO@o                ",
" &%%%%##  oooo@@@                .XooooX. ooo@@@                ",
" *%%%%##  .ooo@@o         .oooo. XooooooX .ooO@o          .oooo.",
" &%%%%##                                                        ",
" &%%%%##    .O@@@@@@o o@@@@o o@@oooo. .oooo. o@@@@@@o .oooo. .oo",
" %%%%%##    o@@@@@@@@ @@@@@@ @@@@@@@O O@@@@O @@@@@@@@ O@@@@O O@@",
" %%%%$##    .O@@@@@@o o@@@@o o@@@@@@o o@@@@o o@@@@@@o o@@@@o o@@",
" $%%$###                                                        ",
" ######+  .ooo@@o o@@@@@o o@@@@o o@@@@@@o o@@@@@o o@@@@@o o@@@@@",
"          oooo@@@ @@@@@@@ @@@@@@ @@@@@@@@ @@@@@@@ @@@@@@@ @@@@@@",
" ######+  .ooo@@o o@@@@@o o@@@@o o@@@@@@o o@@@@@o o@@@@@o o@@@@@",
" $%%$###                                                        ",
" %%%%$##    .O@@@@O.  .ooo.  .ooooooo.        .oooo. .oooo. .ooo",
" &%%%%##    o@@@@@@o                                            ",
" &%%%%##    .O@@@@O.                                            ",
" %%%%%##                +#####+ ####+ +##########+ +############",
" &%%%%##  .ooo@o Oooo.  ####### ##### ############ #############",
" *%%%%##  oooo@@ @oooo  ###$%%% %%$## ##$%%%%%%$## ##$%%%%%%%%%%",
" &%%%%##  .ooo@o Oooo.  ##$%%%% %%%$# #$%%%%%%%%$# #$%%%%%%%%%%%",
" *%%%%##                ##%%%%% %%%%# #%%%%%%%%%%# #%%%%%%%%%%%%",
" *%%%%##    .O@@@@O.    ##%%%%% %%%%# #%%%%%%%%%%# #%%%%%%%%%%%%",
" &%%%%##    o@@@@@@o    +#%%&*& &%%$# #$%%&*&&%%$# #$%%&**&%%&*&",
" %%%%%##    .O@@@@O.                                            "
};
